<svg width="61" height="50" viewBox="0 0 61 50" fill="none" xmlns="http://www.w3.org/2000/svg">
<g id="Frame 638">
<path id="Vector" d="M26.749 0.816613C28.4572 0.809753 30.1654 0.827721 31.8732 0.870511L32.3273 0.887661C32.8516 0.90726 33.3689 0.931759 33.994 0.961158C36.4846 1.08365 38.1841 1.49524 39.6752 2.10037C41.2201 2.72265 42.5217 3.56542 43.8232 4.92757C45.0132 6.15157 45.9342 7.63215 46.5222 9.26638C47.1003 10.827 47.4936 12.6081 47.6107 15.2148C47.6387 15.8665 47.6621 16.4103 47.6809 16.9591L47.6949 17.4344C47.7365 19.2209 47.7545 21.0078 47.7488 22.7948L47.7511 24.6225V27.8318C47.7569 29.6196 47.7389 31.4074 47.6973 33.1947L47.6832 33.67C47.6645 34.2188 47.6411 34.7602 47.613 35.4143C47.4959 38.021 47.098 39.7997 46.5222 41.3603C45.9361 42.9962 45.0149 44.478 43.8232 45.7015C42.6527 46.9469 41.2373 47.9108 39.6752 48.5263C38.1841 49.1314 36.4846 49.543 33.994 49.6655C33.3689 49.6949 32.8516 49.7194 32.3273 49.739L31.8732 49.7537C30.1654 49.7972 28.4572 49.816 26.749 49.81L25.0028 49.8125H21.9386C20.2304 49.8185 18.5222 49.7997 16.8145 49.7561L16.3604 49.7415C15.8047 49.7204 15.2491 49.6959 14.6937 49.6679C12.203 49.5455 10.5036 49.129 9.01012 48.5263C7.44804 47.9122 6.03313 46.9481 4.86449 45.7015C3.67311 44.4773 2.75123 42.9958 2.16316 41.3603C1.58497 39.7997 1.1917 38.021 1.07466 35.4143C1.04859 34.833 1.02518 34.2516 1.00444 33.67L0.992733 33.1947C0.949577 31.4075 0.930067 29.6197 0.934212 27.8318V22.7948C0.927679 21.0078 0.944847 19.2209 0.985711 17.4344L1.0021 16.9591C1.02082 16.4103 1.04423 15.8665 1.07232 15.2148C1.18936 12.6056 1.58263 10.8294 2.16081 9.26638C2.74924 7.63135 3.67292 6.15117 4.86683 4.93002C6.03466 3.68241 7.44869 2.7167 9.01012 2.10037C10.5036 1.49524 12.2007 1.08365 14.6937 0.961158L16.3604 0.887661L16.8145 0.875411C18.5214 0.830266 20.2288 0.809848 21.9363 0.814163L26.749 0.816613ZM24.3427 13.0662C22.7919 13.0432 21.2522 13.3431 19.8131 13.9483C18.374 14.5536 17.0641 15.4521 15.9597 16.5918C14.8553 17.7314 13.9783 19.0894 13.3797 20.5869C12.7812 22.0843 12.4729 23.6913 12.4729 25.3146C12.4729 26.9378 12.7812 28.5448 13.3797 30.0423C13.9783 31.5397 14.8553 32.8977 15.9597 34.0373C17.0641 35.177 18.374 36.0755 19.8131 36.6808C21.2522 37.286 22.7919 37.5859 24.3427 37.5629C27.4468 37.5629 30.4238 36.2723 32.6188 33.9751C34.8138 31.6779 36.0469 28.5621 36.0469 25.3133C36.0469 22.0645 34.8138 18.9488 32.6188 16.6516C30.4238 14.3543 27.4468 13.0662 24.3427 13.0662ZM24.3427 17.966C25.2755 17.948 26.2024 18.1248 27.0693 18.4859C27.9361 18.8471 28.7255 19.3854 29.3913 20.0694C30.0572 20.7534 30.5861 21.5694 30.9472 22.4698C31.3083 23.3702 31.4944 24.3368 31.4946 25.3133C31.4947 26.2898 31.309 27.2565 30.9481 28.157C30.5873 29.0575 30.0586 29.8737 29.393 30.558C28.7274 31.2422 27.9382 31.7808 27.0714 32.1422C26.2047 32.5037 25.2778 32.6807 24.345 32.6631C22.4825 32.6631 20.6963 31.8887 19.3793 30.5104C18.0623 29.132 17.3225 27.2626 17.3225 25.3133C17.3225 23.3641 18.0623 21.4946 19.3793 20.1163C20.6963 18.7379 22.4825 17.9636 24.345 17.9636L24.3427 17.966ZM36.6321 9.39132C35.8769 9.42295 35.1627 9.75918 34.6391 10.3296C34.1155 10.9 33.8231 11.6603 33.8231 12.4513C33.8231 13.2423 34.1155 14.0026 34.6391 14.573C35.1627 15.1434 35.8769 15.4796 36.6321 15.5112C37.4081 15.5112 38.1524 15.1886 38.7011 14.6143C39.2499 14.0399 39.5581 13.261 39.5581 12.4488C39.5581 11.6366 39.2499 10.8577 38.7011 10.2834C38.1524 9.70907 37.4081 9.38642 36.6321 9.38642V9.39132Z" fill="white"/>
</g>
</svg>
