<svg width="61" height="50" viewBox="0 0 61 50" fill="none" xmlns="http://www.w3.org/2000/svg">
<g id="Frame 639">
<path id="Vector" d="M42.6782 23.1435C42.4658 23.0426 42.2514 22.9459 42.0351 22.8536C41.6574 15.8834 37.8497 11.894 31.4552 11.8531H31.3694C27.5433 11.8531 24.3645 13.4865 22.4065 16.4571L25.9223 18.8683C27.3841 16.649 29.6789 16.1753 31.3715 16.1753H31.4286C33.5336 16.1896 35.124 16.8021 36.151 17.9965C36.9003 18.8642 37.4005 20.0667 37.6476 21.5817C35.6505 21.2574 33.6232 21.1595 31.6042 21.2897C25.5262 21.6409 21.6164 25.1852 21.8798 30.1117C22.0125 32.6108 23.2579 34.7606 25.3853 36.1653C27.182 37.3535 29.4993 37.9334 31.9084 37.8027C35.0873 37.6271 37.5802 36.4144 39.3197 34.1971C40.6427 32.5128 41.4777 30.3302 41.8473 27.5801C43.3622 28.4947 44.4851 29.6973 45.1058 31.1428C46.1613 33.603 46.2225 37.6435 42.9253 40.9367C40.0363 43.8236 36.5634 45.071 31.3163 45.1098C25.4955 45.069 21.0917 43.2009 18.2293 39.5626C15.5485 36.153 14.1643 31.2326 14.1133 24.9341C14.1643 18.6355 15.5485 13.7131 18.2293 10.3055C21.0917 6.66729 25.4935 4.80121 31.3163 4.75833C37.178 4.79917 41.6574 6.6775 44.63 10.3321C46.0878 12.1267 47.1862 14.3807 47.911 17.0083L52.0311 15.9099C51.1532 12.6739 49.771 9.887 47.8926 7.57379C44.0808 2.88408 38.5071 0.483082 31.3306 0.434082H31.302C24.1338 0.483082 18.6274 2.89429 14.9258 7.60033C11.6306 11.7857 9.93192 17.6147 9.87476 24.9177V24.9504C9.93192 32.2555 11.6306 38.0804 14.9238 42.2678C18.6253 46.9739 24.1358 49.3851 31.302 49.4341H31.3306C37.7006 49.3892 42.1903 47.7211 45.8877 44.0257C50.7285 39.191 50.5835 33.1314 48.987 29.4115C47.8436 26.743 45.6611 24.5768 42.6782 23.1435ZM31.6798 33.4846C29.0154 33.6357 26.2489 32.4393 26.1101 29.879C26.008 27.9802 27.4617 25.859 31.8431 25.6078C32.3453 25.5772 32.8374 25.565 33.3213 25.565C34.9138 25.565 36.4001 25.7181 37.7537 26.0141C37.2494 32.3188 34.289 33.3417 31.6798 33.4846Z" fill="white"/>
</g>
</svg>
